<?xml version="1.0" standalone="no"?>
<!DOCTYPE svg PUBLIC "-//W3C//DTD SVG 20010904//EN"
 "http://www.w3.org/TR/2001/REC-SVG-20010904/DTD/svg10.dtd">
<svg version="1.0" xmlns="http://www.w3.org/2000/svg"
 width="180.000000pt" height="94.000000pt" viewBox="0 0 180.000000 94.000000"
 preserveAspectRatio="xMidYMid meet">
<g transform="translate(0.000000,94.000000) scale(0.100000,-0.100000)"
fill="#000000" stroke="none">
<path d="M945 926 c-108 -34 -168 -76 -291 -202 -66 -68 -117 -124 -113 -124
4 0 42 -33 84 -72 83 -78 107 -92 142 -83 31 7 94 65 86 78 -3 6 -1 7 5 3 6
-3 49 31 99 80 115 112 199 155 313 160 88 4 130 -6 214 -47 32 -16 60 -28 62
-26 2 2 -10 19 -28 38 -17 19 -28 26 -25 17 7 -19 -3 -24 -19 -9 -5 4 -36 15
-70 25 -87 23 -172 21 -263 -9 -18 -5 -22 -4 -16 5 5 9 4 11 -4 6 -6 -4 -8
-12 -5 -18 5 -8 1 -9 -10 -5 -10 4 -15 3 -11 -3 3 -5 -3 -14 -14 -19 -29 -16
-39 -13 -17 4 11 8 15 15 9 15 -13 0 -45 -35 -37 -42 3 -4 -4 -9 -15 -13 -12
-3 -21 -11 -21 -16 0 -6 -4 -7 -10 -4 -5 3 -10 -1 -10 -10 0 -10 -5 -13 -12
-9 -7 4 -8 3 -4 -4 4 -7 2 -12 -3 -12 -6 0 -36 -25 -67 -55 -52 -50 -86 -72
-68 -43 5 7 3 8 -5 4 -7 -5 -10 -10 -7 -13 3 -3 1 -14 -4 -24 -13 -23 -81 -43
-91 -27 -4 7 -5 16 -3 20 3 4 -3 5 -12 1 -13 -5 -16 -3 -11 10 4 12 2 14 -10
10 -12 -5 -15 -2 -10 10 4 10 2 14 -6 11 -7 -2 -21 3 -32 12 -11 8 -14 12 -6
8 9 -5 12 -3 7 4 -4 7 -13 12 -20 12 -8 0 -20 8 -27 17 -8 9 -9 14 -3 10 15
-9 26 20 19 47 -4 12 -3 17 2 11 10 -13 36 -18 29 -6 -11 17 5 40 22 33 14 -5
15 -3 4 10 -16 20 7 45 26 26 8 -8 10 -6 8 8 -2 11 9 29 23 41 14 13 22 23 17
23 -5 0 17 18 48 41 32 23 60 38 63 35 4 -3 -2 -13 -13 -21 -10 -8 -14 -15 -8
-15 5 0 19 8 30 18 10 10 40 24 67 31 26 8 50 17 52 21 3 5 -16 2 -42 -6 -26
-8 -52 -13 -57 -11 -6 2 18 12 52 23 34 10 62 22 62 27 0 4 -1 7 -2 6 -2 0
-21 -6 -43 -13z m-350 -306 c3 -5 1 -10 -4 -10 -6 0 -11 5 -11 10 0 6 2 10 4
10 3 0 8 -4 11 -10z"/>
<path d="M1013 933 c9 -2 25 -2 35 0 9 3 1 5 -18 5 -19 0 -27 -2 -17 -5z"/>
<path d="M1143 933 c9 -2 25 -2 35 0 9 3 1 5 -18 5 -19 0 -27 -2 -17 -5z"/>
<path d="M1270 903 c92 -35 148 -72 144 -95 -1 -10 2 -21 7 -24 5 -3 9 -2 8 3
-4 23 3 24 26 3 14 -13 27 -21 30 -18 3 3 -16 24 -44 47 -54 46 -158 98 -211
106 -21 3 -5 -6 40 -22z"/>
<path d="M991 894 c0 -11 3 -14 6 -6 3 7 2 16 -1 19 -3 4 -6 -2 -5 -13z"/>
<path d="M1058 903 c7 -3 16 -2 19 1 4 3 -2 6 -13 5 -11 0 -14 -3 -6 -6z"/>
<path d="M1128 903 c6 -2 18 -2 25 0 6 3 1 5 -13 5 -14 0 -19 -2 -12 -5z"/>
<path d="M1175 900 c3 -5 8 -10 11 -10 2 0 4 5 4 10 0 6 -5 10 -11 10 -5 0 -7
-4 -4 -10z"/>
<path d="M1225 890 c-16 -7 -17 -9 -3 -9 9 -1 20 4 23 9 7 11 7 11 -20 0z"/>
<path d="M1373 824 c9 -11 14 -23 11 -26 -3 -3 -1 -8 4 -12 18 -11 8 25 -12
41 -21 18 -21 18 -3 -3z"/>
<path d="M775 804 c-18 -16 -22 -22 -9 -15 18 9 53 42 43 41 -2 -1 -17 -12
-34 -26z"/>
<path d="M665 710 c-3 -5 -1 -10 4 -10 6 0 11 5 11 10 0 6 -2 10 -4 10 -3 0
-8 -4 -11 -10z"/>
<path d="M1411 638 c-50 -14 -130 -68 -189 -128 -44 -45 -50 -55 -40 -69 12
-14 11 -14 -5 -2 -16 13 -25 8 -90 -56 -114 -111 -128 -122 -206 -161 -68 -33
-83 -37 -155 -37 -112 0 -164 27 -296 153 -121 114 -169 145 -221 139 -47 -6
-95 -30 -91 -46 1 -7 -2 -9 -8 -6 -7 4 -23 -4 -37 -16 -50 -47 -80 -137 -51
-155 8 -5 9 0 6 14 -4 12 -2 22 4 22 5 0 7 4 3 9 -3 5 0 13 6 16 5 4 8 13 5
21 -3 8 0 13 7 11 7 -1 11 6 11 15 -1 10 1 16 5 15 13 -4 71 38 67 48 -2 7 9
9 29 7 18 -2 36 1 39 7 10 15 35 14 52 -4 8 -8 21 -12 29 -9 25 10 40 -7 20
-23 -22 -15 -12 -17 15 -3 13 7 21 7 25 0 3 -5 2 -10 -3 -10 -6 0 -13 -7 -16
-16 -5 -14 -4 -15 9 -4 16 14 45 7 45 -11 0 -8 -4 -8 -15 1 -13 11 -14 10 -9
-4 4 -11 13 -15 25 -11 25 8 24 1 -3 -26 l-23 -23 28 17 c25 16 31 15 28 -5 0
-4 5 -5 12 -2 15 5 55 -37 50 -53 -3 -7 6 -17 18 -23 14 -8 19 -8 15 -1 -11
17 3 13 30 -8 17 -14 21 -21 12 -25 -7 -4 -3 -4 10 -2 18 4 21 2 12 -9 -9 -11
-6 -12 12 -9 22 5 22 5 -2 -10 -32 -19 -22 -20 21 -2 29 12 38 12 59 0 29 -16
64 -18 55 -4 -4 6 7 10 27 9 31 -1 32 -1 8 -9 l-25 -8 27 -1 c15 -1 33 5 40
12 7 8 18 12 24 10 7 -2 34 10 62 26 32 18 49 24 45 15 -3 -8 -10 -14 -16 -14
-6 0 -8 -2 -5 -5 7 -7 83 43 84 56 1 5 2 14 3 20 0 5 6 7 11 4 6 -4 7 -11 4
-17 -4 -6 2 -6 15 1 12 7 21 21 21 36 0 27 15 41 26 24 5 -8 3 -9 -6 -4 -9 5
-11 4 -6 -4 11 -17 25 -4 21 18 -2 13 4 21 20 25 18 5 22 11 18 23 -5 12 -3
14 7 8 8 -5 11 -4 7 2 -8 13 32 46 49 39 8 -3 20 6 29 24 14 27 26 35 48 31 5
-1 6 3 2 8 -3 6 -13 7 -23 4 -15 -6 -15 -4 -4 10 8 9 20 13 29 10 13 -5 15 -2
10 11 -5 13 -3 17 7 13 8 -3 22 1 33 9 17 14 16 14 -4 4 -13 -6 -23 -7 -23 -3
0 9 49 41 63 42 4 0 14 7 22 15 8 8 41 20 73 26 76 15 84 18 42 18 -19 0 -50
-4 -69 -10z m-1135 -196 c-4 -3 -14 2 -24 12 -16 18 -16 18 6 6 13 -6 21 -14
18 -18z m751 -157 c0 -17 -13 -20 -21 -6 -4 5 0 12 6 14 7 3 13 6 14 6 0 1 1
-6 1 -14z m-527 -35 c0 -5 -4 -10 -10 -10 -5 0 -10 5 -10 10 0 6 5 10 10 10 6
0 10 -4 10 -10z m465 -10 c-3 -5 -12 -10 -18 -10 -7 0 -6 4 3 10 19 12 23 12
15 0z"/>
<path d="M1524 641 c4 -6 17 -11 29 -11 42 0 123 -47 165 -95 23 -26 42 -53
43 -59 0 -6 9 -29 19 -51 17 -35 18 -36 13 -10 -16 82 -85 165 -166 204 -53
25 -112 38 -103 22z"/>
<path d="M889 603 c-13 -16 -12 -17 4 -4 16 13 21 21 13 21 -2 0 -10 -8 -17
-17z"/>
<path d="M1468 613 c7 -3 16 -2 19 1 4 3 -2 6 -13 5 -11 0 -14 -3 -6 -6z"/>
<path d="M610 590 c-12 -7 -10 -9 7 -7 12 0 19 5 17 9 -6 10 -6 10 -24 -2z"/>
<path d="M338 560 c-49 -15 -50 -21 -8 -42 22 -11 89 -66 147 -121 62 -58 126
-108 152 -120 59 -26 132 -25 196 3 50 21 134 79 135 92 0 4 -15 4 -34 1 -23
-3 -42 0 -57 10 -19 14 -25 14 -50 1 -39 -20 -108 -18 -151 5 -19 11 -39 17
-44 13 -4 -4 -4 -2 -1 4 9 15 -113 131 -157 149 -38 16 -85 18 -128 5z m70
-21 c3 -12 2 -12 -7 1 -13 18 -23 9 -11 -10 7 -12 12 -12 28 3 21 19 37 23 27
7 -4 -7 3 -9 22 -5 15 4 23 3 17 -2 -8 -5 -5 -14 7 -27 11 -11 19 -14 19 -8 0
6 16 -5 35 -25 39 -40 40 -43 23 -63 -11 -12 -10 -12 5 -1 15 12 20 11 31 -5
8 -10 10 -21 6 -24 -5 -3 1 -12 13 -19 19 -13 21 -12 10 1 -21 25 -3 28 34 5
44 -26 109 -30 140 -10 13 9 25 14 27 12 2 -2 8 -13 15 -24 12 -19 12 -19 6 2
-5 18 -2 20 15 16 26 -7 26 -25 -1 -42 -16 -10 -23 -10 -29 -1 -5 8 -9 4 -13
-10 -5 -19 -10 -21 -32 -16 -17 4 -24 3 -21 -3 9 -13 -37 -10 -46 4 -5 6 -8 6
-8 -2 0 -20 -54 -15 -82 7 -14 10 -29 16 -32 12 -4 -4 -6 -1 -4 6 2 8 -8 20
-22 29 -20 12 -21 12 -7 0 9 -8 17 -18 17 -22 0 -5 -9 0 -20 10 -12 10 -19 24
-16 30 2 6 -5 12 -15 12 -24 2 -79 61 -79 85 0 9 -4 20 -10 23 -6 3 -7 -1 -4
-9 3 -9 1 -16 -5 -16 -6 0 -11 4 -11 9 0 5 -10 13 -21 16 -16 5 -18 9 -9 15 9
6 7 10 -8 14 -17 6 -20 14 -13 44 2 9 25 -6 29 -19z"/>
<path d="M501 481 c-8 -5 -9 -11 -3 -15 5 -3 12 1 16 9 6 17 6 18 -13 6z"/>
<path d="M530 466 c0 -11 30 -39 36 -34 2 3 -5 13 -16 23 -11 10 -20 15 -20
11z"/>
<path d="M510 411 c0 -6 4 -13 10 -16 6 -3 7 1 4 9 -7 18 -14 21 -14 7z"/>
<path d="M600 356 c0 -2 8 -10 18 -17 15 -13 16 -12 3 4 -13 16 -21 21 -21 13z"/>
<path d="M668 293 c7 -3 16 -2 19 1 4 3 -2 6 -13 5 -11 0 -14 -3 -6 -6z"/>
<path d="M1725 470 c-3 -5 -1 -10 4 -10 6 0 11 5 11 10 0 6 -2 10 -4 10 -3 0
-8 -4 -11 -10z"/>
<path d="M1175 400 c10 -11 20 -20 23 -20 3 0 -3 9 -13 20 -10 11 -20 20 -23
20 -3 0 3 -9 13 -20z"/>
<path d="M325 339 c-11 -16 -1 -19 13 -3 7 8 8 14 3 14 -5 0 -13 -5 -16 -11z"/>
<path d="M1090 335 c0 -2 6 -8 13 -14 10 -8 14 -7 14 2 0 8 -6 14 -14 14 -7 0
-13 -1 -13 -2z"/>
<path d="M11 194 c8 -60 37 -106 93 -149 37 -28 96 -44 96 -26 0 10 -5 12 -25
11 -3 -1 -13 6 -22 15 -8 9 -22 14 -30 11 -8 -3 -12 -2 -9 3 3 5 -12 23 -34
42 -21 18 -37 36 -34 41 3 4 -2 23 -10 42 -8 19 -12 36 -10 39 3 2 -2 9 -9 15
-11 10 -12 2 -6 -44z"/>
<path d="M1781 238 c-1 -10 -5 -18 -11 -18 -5 0 -7 -7 -4 -15 4 -8 2 -15 -3
-15 -12 0 -44 -56 -36 -64 3 -3 -1 -6 -11 -6 -11 0 -14 -4 -10 -12 5 -8 2 -9
-10 -5 -9 4 -15 3 -12 -2 7 -10 -44 -46 -60 -43 -5 1 -19 -6 -30 -16 -11 -11
-33 -24 -49 -30 l-30 -12 35 6 c60 11 118 43 165 92 46 47 82 119 72 144 -4 9
-6 7 -6 -4z"/>
<path d="M445 230 c3 -5 8 -10 11 -10 2 0 4 5 4 10 0 6 -5 10 -11 10 -5 0 -7
-4 -4 -10z"/>
<path d="M50 219 c0 -5 5 -7 10 -4 6 3 10 8 10 11 0 2 -4 4 -10 4 -5 0 -10 -5
-10 -11z"/>
<path d="M220 10 c-9 -6 -10 -10 -3 -10 6 0 15 5 18 10 8 12 4 12 -15 0z"/>
</g>
</svg>
